HIERARCHY
ROOT Model
{
	OFFSET 0 0 0
	CHANNELS 6 Xposition Yposition Zposition Zrotation Xrotation Yrotation
	JOINT Model1
	{
		OFFSET 0 -2.25479 2.99384
		CHANNELS 3 Zrotation Xrotation Yrotation
		JOINT Model2
		{
			OFFSET 12.111 0 0
			CHANNELS 3 Zrotation Xrotation Yrotation
			JOINT Model3
			{
				OFFSET 11.5502 0 0
				CHANNELS 3 Zrotation Xrotation Yrotation
				JOINT Model4
				{
					OFFSET 11.781 0 0
					CHANNELS 3 Zrotation Xrotation Yrotation
					JOINT Model5
					{
						OFFSET 20.0601 0 0
						CHANNELS 3 Zrotation Xrotation Yrotation
						JOINT Model6
						{
							OFFSET 11.1962 0 0
							CHANNELS 3 Zrotation Xrotation Yrotation
							End Site
							{
								OFFSET 0 0 0
							}
						}
					}
					JOINT Model7
					{
						OFFSET 10.8223 0.417534 3.51114
						CHANNELS 3 Zrotation Xrotation Yrotation
						JOINT Model8
						{
							OFFSET -6.07943 0 0
							CHANNELS 3 Zrotation Xrotation Yrotation
							JOINT Model9
							{
								OFFSET -0.277416 10.39 -0.051239
								CHANNELS 3 Zrotation Xrotation Yrotation
								JOINT Model10
								{
									OFFSET -3.4391 -0.282043 1.86679
									CHANNELS 3 Zrotation Xrotation Yrotation
									JOINT Model11
									{
										OFFSET 13.0269 0 0
										CHANNELS 3 Zrotation Xrotation Yrotation
										JOINT Model12
										{
											OFFSET 10.8866 0 0
											CHANNELS 3 Zrotation Xrotation Yrotation
											JOINT Model13
											{
												OFFSET 16.7317 0 0
												CHANNELS 3 Zrotation Xrotation Yrotation
												JOINT Model14
												{
													OFFSET 11.8292 0 0
													CHANNELS 3 Zrotation Xrotation Yrotation
													JOINT Model15
													{
														OFFSET 4.82751 -3.73566 -0.836517
														CHANNELS 3 Zrotation Xrotation Yrotation
														JOINT Model16
														{
															OFFSET 3.75311 -0.0582886 -0.0186462
															CHANNELS 3 Zrotation Xrotation Yrotation
															JOINT Model17
															{
																OFFSET 2.88688 0.0192337 0.014801
																CHANNELS 3 Zrotation Xrotation Yrotation
																End Site
																{
																	OFFSET 0 0 0
																}
															}
														}
													}
													JOINT Model18
													{
														OFFSET 9.72197 -3.06458 0.23877
														CHANNELS 3 Zrotation Xrotation Yrotation
														JOINT Model19
														{
															OFFSET 4.61131 0 0
															CHANNELS 3 Zrotation Xrotation Yrotation
															JOINT Model20
															{
																OFFSET 2.8969 -7.62939e-006 0
																CHANNELS 3 Zrotation Xrotation Yrotation
																End Site
																{
																	OFFSET 0 0 0
																}
															}
														}
													}
													JOINT Model21
													{
														OFFSET 9.54431 -0.745064 0.588928
														CHANNELS 3 Zrotation Xrotation Yrotation
														JOINT Model22
														{
															OFFSET 5.33978 0 0
															CHANNELS 3 Zrotation Xrotation Yrotation
															JOINT Model23
															{
																OFFSET 3.03619 7.62939e-006 0
																CHANNELS 3 Zrotation Xrotation Yrotation
																End Site
																{
																	OFFSET 0 0 0
																}
															}
														}
													}
													JOINT Model24
													{
														OFFSET 9.47759 1.51286 0.485107
														CHANNELS 3 Zrotation Xrotation Yrotation
														JOINT Model25
														{
															OFFSET 4.96136 7.62939e-006 0
															CHANNELS 3 Zrotation Xrotation Yrotation
															JOINT Model26
															{
																OFFSET 2.51966 0 0
																CHANNELS 3 Zrotation Xrotation Yrotation
																End Site
																{
																	OFFSET 0 0 0
																}
															}
														}
													}
													JOINT Model27
													{
														OFFSET 9.34247 3.34117 -0.239288
														CHANNELS 3 Zrotation Xrotation Yrotation
														JOINT Model28
														{
															OFFSET 3.2826 2.28882e-005 0
															CHANNELS 3 Zrotation Xrotation Yrotation
															JOINT Model29
															{
																OFFSET 2.1292 0 0
																CHANNELS 3 Zrotation Xrotation Yrotation
																End Site
																{
																	OFFSET 0 0 0
																}
															}
														}
													}
												}
											}
										}
									}
								}
							}
						}
					}
					JOINT Model30
					{
						OFFSET 10.8223 0.4179 -3.51108
						CHANNELS 3 Zrotation Xrotation Yrotation
						JOINT Model31
						{
							OFFSET 6.07943 0 0
							CHANNELS 3 Zrotation Xrotation Yrotation
							JOINT Model32
							{
								OFFSET 0.277416 -10.39 0.051239
								CHANNELS 3 Zrotation Xrotation Yrotation
								JOINT Model33
								{
									OFFSET 3.4391 0.282043 -1.86679
									CHANNELS 3 Zrotation Xrotation Yrotation
									JOINT Model34
									{
										OFFSET -13.0269 0 0
										CHANNELS 3 Zrotation Xrotation Yrotation
										JOINT Model35
										{
											OFFSET -10.8866 0 0
											CHANNELS 3 Zrotation Xrotation Yrotation
											JOINT Model36
											{
												OFFSET -16.7317 0 0
												CHANNELS 3 Zrotation Xrotation Yrotation
												JOINT Model37
												{
													OFFSET -11.8292 0 0
													CHANNELS 3 Zrotation Xrotation Yrotation
													JOINT Model38
													{
														OFFSET -4.82751 3.73566 0.836517
														CHANNELS 3 Zrotation Xrotation Yrotation
														JOINT Model39
														{
															OFFSET -3.75311 0.0582886 0.0186462
															CHANNELS 3 Zrotation Xrotation Yrotation
															JOINT Model40
															{
																OFFSET -2.88688 -0.0192337 -0.014801
																CHANNELS 3 Zrotation Xrotation Yrotation
																End Site
																{
																	OFFSET 0 0 0
																}
															}
														}
													}
													JOINT Model41
													{
														OFFSET -9.72197 3.06459 -0.23877
														CHANNELS 3 Zrotation Xrotation Yrotation
														JOINT Model42
														{
															OFFSET -4.6113 0 0
															CHANNELS 3 Zrotation Xrotation Yrotation
															JOINT Model43
															{
																OFFSET -2.8969 0 0
																CHANNELS 3 Zrotation Xrotation Yrotation
																End Site
																{
																	OFFSET 0 0 0
																}
															}
														}
													}
													JOINT Model44
													{
														OFFSET -9.5443 0.745064 -0.588928
														CHANNELS 3 Zrotation Xrotation Yrotation
														JOINT Model45
														{
															OFFSET -5.33978 0 0
															CHANNELS 3 Zrotation Xrotation Yrotation
															JOINT Model46
															{
																OFFSET -3.03619 -1.52588e-005 0
																CHANNELS 3 Zrotation Xrotation Yrotation
																End Site
																{
																	OFFSET 0 0 0
																}
															}
														}
													}
													JOINT Model47
													{
														OFFSET -9.47759 -1.51286 -0.485107
														CHANNELS 3 Zrotation Xrotation Yrotation
														JOINT Model48
														{
															OFFSET -4.96136 -1.52588e-005 0
															CHANNELS 3 Zrotation Xrotation Yrotation
															JOINT Model49
															{
																OFFSET -2.51966 0 0
																CHANNELS 3 Zrotation Xrotation Yrotation
																End Site
																{
																	OFFSET 0 0 0
																}
															}
														}
													}
													JOINT Model50
													{
														OFFSET -9.34246 -3.34118 0.239288
														CHANNELS 3 Zrotation Xrotation Yrotation
														JOINT Model51
														{
															OFFSET -3.2826 -2.28882e-005 0
															CHANNELS 3 Zrotation Xrotation Yrotation
															JOINT Model52
															{
																OFFSET -2.1292 0 0
																CHANNELS 3 Zrotation Xrotation Yrotation
																End Site
																{
																	OFFSET 0 0 0
																}
															}
														}
													}
												}
											}
										}
									}
								}
							}
						}
					}
				}
			}
		}
	}
	JOINT Model53
	{
		OFFSET 4.38026 -2.14632 -1.11517
		CHANNELS 3 Zrotation Xrotation Yrotation
		JOINT Model54
		{
			OFFSET 0 0 4.94998
			CHANNELS 3 Zrotation Xrotation Yrotation
			JOINT Model55
			{
				OFFSET 18.5642 0 0
				CHANNELS 3 Zrotation Xrotation Yrotation
				JOINT Model56
				{
					OFFSET 21.2884 0 0
					CHANNELS 3 Zrotation Xrotation Yrotation
					JOINT Model57
					{
						OFFSET 30.261 0 0
						CHANNELS 3 Zrotation Xrotation Yrotation
						JOINT Model58
						{
							OFFSET 11.7259 0 0
							CHANNELS 3 Zrotation Xrotation Yrotation
							JOINT Model59
							{
								OFFSET 10.682 0 0
								CHANNELS 3 Zrotation Xrotation Yrotation
								End Site
								{
									OFFSET 0 0 0
								}
							}
						}
					}
				}
			}
		}
	}
	JOINT Model60
	{
		OFFSET -4.38026 -2.14632 -1.11517
		CHANNELS 3 Zrotation Xrotation Yrotation
		JOINT Model61
		{
			OFFSET 0 0 -4.94998
			CHANNELS 3 Zrotation Xrotation Yrotation
			JOINT Model62
			{
				OFFSET -18.5642 0 0
				CHANNELS 3 Zrotation Xrotation Yrotation
				JOINT Model63
				{
					OFFSET -21.2884 0 0
					CHANNELS 3 Zrotation Xrotation Yrotation
					JOINT Model64
					{
						OFFSET -30.261 0 0
						CHANNELS 3 Zrotation Xrotation Yrotation
						JOINT Model65
						{
							OFFSET -11.7259 0 0
							CHANNELS 3 Zrotation Xrotation Yrotation
							JOINT Model66
							{
								OFFSET -10.682 0 0
								CHANNELS 3 Zrotation Xrotation Yrotation
								End Site
								{
									OFFSET 0 0 0
								}
							}
						}
					}
				}
			}
		}
	}
}
MOTION
Frames: 4
Frame Time: 0.033333
5.44568 138.318 -514.613 104.981 1.73621 92.2176 -180 4.29621e-031 -90 -0.237906 -0.665646 -3.36394 -0.514571 -1.31661 -6.73129 -0.514571 -1.31617 -6.73128 37.3886 -1.95512 15.0474 -8.87634 -3.32195 -2.68248 120.092 75.5343 58.4939 -13.719 -8.96175 -1.26853 -167.277 84.4999 48.8109 148.3 14.4759 20.4878 -1.02262e-005 42.6813 4.35312e-005 -33.7159 2.22462 0.338209 -8.25016e-008 2.80078 -3.71042e-007 1.90482 -0.160334 -9.62202 -72.0648 39.0385 39.3397 33.3638 2.10362 14.835 0.588947 0.308273 6.35287 -99.6409 81.413 100.35 -0.0181409 2.77851e-005 -0.117315 -0.124139 0.00241113 -0.799296 -79.8382 79.5773 80.5374 -0.000225772 -0.000220917 2.22334e-005 -0.00095622 0.000122902 -2.72679e-005 -66.7416 80.4058 67.2171 -0.000437126 1.59517e-005 -2.72819e-005 -0.000136596 -0.000109283 -5.45889e-005 -6.42159 81.2158 8.01779 -0.000218557 1.6913e-005 0.000212178 0.000901597 -0.000184795 -0.000218515 -59.9282 75.5373 58.5147 -38.6132 -23.5992 -10.097 -167.277 84.4999 48.8109 -166.977 9.2568 18.8125 -1.22974e-005 28.0882 4.00757e-005 -99.9089 16.6929 0.626696 -7.62609e-006 24.779 3.43552e-006 -7.12591 -1.9477 30.5393 -72.0648 39.0385 39.3397 33.3638 2.10361 14.835 0.588946 0.308273 6.35287 -99.6409 81.413 100.35 -0.0181409 3.00778e-005 -0.117315 -0.124139 0.00241113 -0.799296 -79.8382 79.5773 80.5374 -0.000260651 -0.000218566 2.35633e-005 -0.000956232 0.000122996 -2.73304e-005 -66.7416 80.4058 67.2171 -0.000437137 1.48808e-005 -2.73276e-005 -0.00013661 -0.000109284 -5.46508e-005 -6.42159 81.2158 8.01779 -0.000218572 1.95776e-005 0.00021229 0.000901575 -0.000191247 -0.000218574 0.000811311 0.56661 89.91 -73.3594 0.853624 -22.3195 -1.28471e-006 -2.39701 -4.60246e-008 114.189 -3.37217 -0.0177441 -2.97477e-007 -5.16843 -3.33984e-007 -71.0553 4.7641 -3.4387 -35.4947 2.71123e-006 2.53165e-006 -180 -0.566579 -90.09 -68.9723 -0.831329 -20.6619 -5.72938e-006 -3.42647 -8.73852e-007 111.655 -8.89846 0.00194164 1.65966e-006 -13.4609 1.48888e-006 -73.5608 -4.44105 1.01497 -35.4947 -0.000162956 4.22435e-005 
5.38049 138.297 -514.609 104.66 1.73668 92.1053 -180 4.29621e-031 -90 -0.183261 -0.742822 -3.3511 -0.409741 -1.47409 -6.70539 -0.409741 -1.47365 -6.70538 37.1593 -1.92429 17.28 -9.6637 -3.39515 -3.32934 120.092 75.5343 58.4939 -13.0561 -9.22072 -1.44865 -167.277 84.4999 48.8109 149.301 10.0627 19.8695 -3.73124e-006 35.7241 3.94183e-005 -37.8693 -0.717323 0.373944 -1.1134e-007 -1.6551 -3.70754e-007 1.77976 -0.106927 -6.87586 -72.0648 39.0385 39.3397 33.3638 2.10362 14.835 0.588947 0.308273 6.35287 -99.6409 81.413 100.35 -0.0181409 2.77851e-005 -0.117315 -0.124139 0.00241113 -0.799296 -79.8382 79.5773 80.5374 -0.000225772 -0.000220917 2.22334e-005 -0.00095622 0.000122902 -2.72679e-005 -66.7416 80.4058 67.2171 -0.000437126 1.59517e-005 -2.72819e-005 -0.000136596 -0.000109283 -5.45889e-005 -6.42159 81.2158 8.01779 -0.000218557 1.6913e-005 0.000212178 0.000901597 -0.000184795 -0.000218515 -59.9282 75.5373 58.5147 -38.4776 -23.6353 -10.1149 -167.277 84.4999 48.8109 -167.081 9.22137 18.7744 -1.22858e-005 28.0736 4.00703e-005 -100.014 16.7197 0.626586 -7.62888e-006 24.8211 3.43669e-006 -7.24516 -1.96437 30.3039 -72.0648 39.0385 39.3397 33.3638 2.10361 14.835 0.588946 0.308273 6.35287 -99.6409 81.413 100.35 -0.0181409 3.00778e-005 -0.117315 -0.124139 0.00241113 -0.799296 -79.8382 79.5773 80.5374 -0.000260651 -0.000218566 2.35633e-005 -0.000956232 0.000122996 -2.73304e-005 -66.7416 80.4058 67.2171 -0.000437137 1.48808e-005 -2.73276e-005 -0.00013661 -0.000109284 -5.46508e-005 -6.42159 81.2158 8.01779 -0.000218572 1.95776e-005 0.00021229 0.000901575 -0.000191247 -0.000218574 0.000811311 0.56661 89.91 -73.719 0.849566 -22.1184 -1.28477e-006 -2.47455 -4.60272e-008 114.172 -3.47347 -0.0177514 -2.98367e-007 -5.3204 -3.34065e-007 -71.0348 4.78087 -3.4476 -35.4947 2.72946e-006 2.5538e-006 -180 -0.566579 -90.09 -69.4268 -0.732011 -20.7385 -5.72915e-006 -3.41142 -8.73839e-007 111.702 -8.90574 0.00195915 1.65995e-006 -13.4718 1.48894e-006 -73.4966 -4.31436 0.959505 -35.4947 -0.000163261 4.23231e-005 
5.36073 138.255 -514.58 104.599 1.77356 92.1027 -180 4.29621e-031 -90 -0.128445 -0.801335 -3.27499 -0.302563 -1.59445 -6.55273 -0.302563 -1.59402 -6.55273 38.3123 -1.78265 18.2844 -11.0694 -3.59728 -2.95038 120.092 75.5343 58.4939 -12.5035 -9.60806 -1.67263 -167.277 84.4999 48.8109 149.284 6.10875 18.6576 1.07495e-006 29.6409 3.68194e-005 -44.404 -2.76145 0.426814 -1.31574e-007 -4.77268 -3.71888e-007 2.70529 -0.120395 -5.09542 -72.0648 39.0385 39.3397 33.3638 2.10362 14.835 0.588947 0.308273 6.35287 -99.6409 81.413 100.35 -0.0181409 2.77851e-005 -0.117315 -0.124139 0.00241113 -0.799296 -79.8382 79.5773 80.5374 -0.000225772 -0.000220917 2.22334e-005 -0.00095622 0.000122902 -2.72679e-005 -66.7416 80.4058 67.2171 -0.000437126 1.59517e-005 -2.72819e-005 -0.000136596 -0.000109283 -5.45889e-005 -6.42159 81.2158 8.01779 -0.000218557 1.6913e-005 0.000212178 0.000901597 -0.000184795 -0.000218515 -59.9282 75.5373 58.5147 -38.1189 -23.3517 -9.85429 -167.277 84.4999 48.8109 -166.842 9.07853 18.4705 -1.22308e-005 28.0041 4.00444e-005 -100.425 16.4894 0.625036 -7.60662e-006 24.4834 3.4274e-006 -6.94533 -1.87632 30.203 -72.0648 39.0385 39.3397 33.3638 2.10361 14.835 0.588946 0.308273 6.35287 -99.6409 81.413 100.35 -0.0181409 3.00778e-005 -0.117315 -0.124139 0.00241113 -0.799296 -79.8382 79.5773 80.5374 -0.000260651 -0.000218566 2.35633e-005 -0.000956232 0.000122996 -2.73304e-005 -66.7416 80.4058 67.2171 -0.000437137 1.48808e-005 -2.73276e-005 -0.00013661 -0.000109284 -5.46508e-005 -6.42159 81.2158 8.01779 -0.000218572 1.95776e-005 0.00021229 0.000901575 -0.000191247 -0.000218574 0.000811311 0.56661 89.91 -73.8489 0.877888 -21.9625 -1.28475e-006 -2.44235 -4.60261e-008 114.211 -3.57478 -0.0177585 -2.99257e-007 -5.47233 -3.34149e-007 -71.0862 4.84828 -3.48083 -35.4947 2.74753e-006 2.57575e-006 -180 -0.566579 -90.09 -69.5665 -0.706944 -20.7247 -5.72914e-006 -3.41064 -8.73838e-007 111.768 -8.95591 0.00197659 1.66196e-006 -13.547 1.48941e-006 -73.4117 -4.31007 0.964166 -35.4947 -0.000163561 4.24014e-005 
5.3788 138.195 -514.534 104.846 1.82427 92.1559 -180 4.29621e-031 -90 -0.0763307 -0.836143 -3.14459 -0.198505 -1.66727 -6.29129 -0.198505 -1.66683 -6.29129 40.675 -1.58007 17.8761 -12.6351 -3.962 -1.60277 120.092 75.5343 58.4939 -12.2329 -10.1756 -1.94903 -167.277 84.4999 48.8109 147.694 3.30257 16.2384 4.01309e-006 25.511 3.54584e-005 -53.1354 -3.86375 0.488596 -1.42615e-007 -6.46317 -3.72969e-007 3.97591 -0.176231 -5.07389 -72.0648 39.0385 39.3397 33.3638 2.10362 14.835 0.588947 0.308273 6.35287 -99.6409 81.413 100.35 -0.0181409 2.77851e-005 -0.117315 -0.124139 0.00241113 -0.799296 -79.8382 79.5773 80.5374 -0.000225772 -0.000220917 2.22334e-005 -0.00095622 0.000122902 -2.72679e-005 -66.7416 80.4058 67.2171 -0.000437126 1.59517e-005 -2.72819e-005 -0.000136596 -0.000109283 -5.45889e-005 -6.42159 81.2158 8.01779 -0.000218557 1.6913e-005 0.000212178 0.000901597 -0.000184795 -0.000218515 -59.9282 75.5373 58.5147 -37.4828 -22.6626 -9.25223 -167.277 84.4999 48.8109 -166.305 8.82651 17.9674 -1.2108e-005 27.8488 3.99869e-005 -101.023 16.0036 0.622271 -7.55974e-006 23.7661 3.40824e-006 -6.0996 -1.66088 30.4385 -72.0648 39.0385 39.3397 33.3638 2.10361 14.835 0.588946 0.308273 6.35287 -99.6409 81.413 100.35 -0.0181409 3.00778e-005 -0.117315 -0.124139 0.00241113 -0.799296 -79.8382 79.5773 80.5374 -0.000260651 -0.000218566 2.35633e-005 -0.000956232 0.000122996 -2.73304e-005 -66.7416 80.4058 67.2171 -0.000437137 1.48808e-005 -2.73276e-005 -0.00013661 -0.000109284 -5.46508e-005 -6.42159 81.2158 8.01779 -0.000218572 1.95776e-005 0.00021229 0.000901575 -0.000191247 -0.000218574 0.000811311 0.56661 89.91 -73.678 0.907041 -21.8978 -1.28466e-006 -2.33675 -4.60226e-008 114.288 -3.62805 -0.0177645 -2.99724e-007 -5.55217 -3.34194e-007 -71.1274 4.94094 -3.52701 -35.4947 2.76543e-006 2.5975e-006 -180 -0.566579 -90.09 -69.363 -0.740953 -20.6591 -5.72894e-006 -3.39779 -8.73826e-007 111.86 -9.01138 0.00199376 1.66418e-006 -13.6301 1.48994e-006 -73.3514 -4.40742 1.01567 -35.4947 -0.000163856 4.24783e-005 
